<?xml version="1.0" standalone="no"?>
<!DOCTYPE svg PUBLIC "-//W3C//DTD SVG 20010904//EN"
 "http://www.w3.org/TR/2001/REC-SVG-20010904/DTD/svg10.dtd">
<svg version="1.0" xmlns="http://www.w3.org/2000/svg"
 width="6291.000000pt" height="4500.000000pt" viewBox="0 0 6291.000000 4500.000000"
 preserveAspectRatio="xMidYMid meet">

<g transform="translate(0.000000,4500.000000) scale(0.100000,-0.100000)"
fill="#bd161d" stroke="none">
<path d="M31290 34854 c-394 -33 -670 -105 -985 -258 -647 -315 -1067 -880
-1230 -1654 -55 -268 -68 -408 -71 -796 l-3 -359 -903 -467 c-497 -256 -1004
-518 -1128 -582 -124 -64 -526 -272 -895 -461 -368 -190 -710 -369 -759 -398
-325 -198 -564 -537 -641 -913 -17 -87 -185 -1887 -185 -1990 0 -186 130 -361
308 -416 135 -42 105 -48 1295 256 595 151 1169 298 1276 325 106 27 197 49
202 47 6 -2 -16 -41 -48 -88 -32 -47 -126 -189 -209 -315 -1033 -1574 -1794
-3083 -2113 -4190 -80 -279 -135 -525 -167 -749 -14 -100 -15 -135 -6 -220 19
-170 85 -327 191 -453 79 -94 158 -155 282 -217 185 -94 24 -87 2139 -84 1843
3 1845 3 1915 24 88 26 173 66 250 118 108 71 190 167 375 440 96 141 249 365
340 497 91 132 172 251 180 265 8 13 48 72 89 131 40 60 113 167 162 238 48
72 147 216 218 320 71 105 164 241 206 303 l76 113 32 -43 c30 -41 252 -364
413 -603 41 -60 132 -194 202 -296 70 -102 273 -401 452 -664 179 -263 347
-504 373 -537 124 -152 326 -269 513 -298 47 -7 658 -10 1919 -8 2088 4 1876
-5 2061 88 266 134 431 368 464 660 13 114 1 224 -50 480 -247 1227 -1059
2907 -2344 4850 -85 129 -151 236 -146 238 5 2 60 -10 122 -27 62 -16 293 -75
513 -131 220 -56 450 -114 510 -130 61 -16 403 -103 761 -194 716 -183 737
-186 863 -147 170 53 295 209 308 383 6 95 -159 1902 -186 2032 -57 270 -182
498 -386 702 -128 129 -237 205 -440 306 -77 39 -745 383 -1485 765 -740 382
-1442 745 -1560 806 -118 61 -268 139 -334 173 l-118 62 -3 343 c-2 376 -12
490 -66 768 -85 434 -253 808 -502 1116 -82 101 -258 272 -365 354 -322 245
-722 405 -1161 466 -111 15 -430 27 -521 19z m-595 -415 c-21 -12 -78 -48
-127 -80 -48 -32 -95 -59 -105 -60 -10 0 -13 -3 -6 -5 7 -3 -17 -27 -53 -55
-36 -27 -70 -46 -76 -43 -6 4 -8 2 -5 -3 4 -6 -12 -27 -35 -47 -32 -28 -44
-34 -51 -24 -6 10 -8 9 -4 -3 4 -11 -21 -42 -75 -94 -44 -43 -98 -100 -121
-127 -30 -36 -43 -45 -50 -36 -6 10 -7 9 -4 -2 6 -20 -11 -52 -24 -45 -5 4 -8
1 -7 -6 2 -7 -4 -13 -12 -14 -8 0 -14 -7 -13 -16 2 -8 -12 -32 -31 -52 -18
-20 -32 -38 -30 -40 2 -2 -10 -18 -26 -35 -16 -18 -27 -32 -24 -32 2 0 -8 -18
-22 -40 -28 -42 -42 -54 -24 -21 5 11 10 23 10 28 -1 4 -7 -3 -14 -17 -8 -14
-12 -28 -9 -32 2 -5 -4 -20 -15 -36 -10 -15 -31 -50 -47 -79 -15 -29 -31 -50
-36 -47 -4 2 -7 -4 -7 -13 1 -25 -58 -134 -67 -125 -5 4 -5 2 -2 -5 7 -11 -36
-116 -44 -109 -2 3 -5 -5 -6 -17 0 -12 -9 -40 -19 -62 -10 -22 -19 -44 -20
-50 -8 -35 -60 -171 -67 -173 -4 -2 -5 -7 -3 -11 3 -4 -6 -48 -19 -97 -60
-226 -105 -535 -105 -715 0 -43 -4 -69 -11 -69 -8 0 -9 64 -5 223 3 122 5 238
5 257 1 19 5 69 11 110 14 105 20 153 21 170 3 68 66 348 85 378 8 12 12 26
10 31 -7 11 34 135 46 139 4 2 6 8 2 13 -3 5 -1 9 4 9 5 0 10 12 10 26 0 15 6
30 13 35 8 4 14 14 14 21 1 28 48 127 58 121 5 -3 7 -1 4 5 -9 14 3 43 14 36
5 -3 6 3 2 12 -4 12 -3 15 5 10 8 -4 10 -2 6 8 -3 8 3 23 14 34 11 11 17 24
14 28 -4 4 2 4 12 0 15 -5 16 -4 8 6 -8 10 3 33 41 90 28 42 56 74 62 71 5 -4
7 -3 3 2 -11 11 11 47 24 39 6 -4 8 -3 5 3 -9 14 82 115 95 106 7 -3 8 -1 4 6
-5 7 8 28 32 51 36 36 61 53 48 32 -3 -5 2 -9 10 -9 10 0 11 4 4 11 -15 15
-12 29 6 22 8 -3 13 -2 10 3 -6 9 40 53 110 108 32 25 43 30 53 20 10 -9 11
-9 6 4 -7 19 39 54 57 43 6 -4 8 -3 5 3 -9 15 19 37 38 29 8 -3 14 0 12 6 -2
13 80 61 92 54 4 -3 13 0 21 6 12 8 12 9 -2 4 -35 -11 -17 3 42 33 33 17 60
28 60 25 0 -4 7 -1 15 6 8 6 20 8 26 4 7 -4 9 -3 6 3 -4 6 0 14 9 17 24 9 36
7 28 -6 -4 -7 -3 -8 5 -4 6 4 9 11 6 16 -2 4 26 19 63 33 84 31 109 34 57 6z
m1522 10 c15 -7 35 -13 43 -14 35 -5 99 -38 93 -48 -3 -6 -1 -7 6 -3 16 10 53
-3 45 -16 -4 -6 -2 -8 4 -4 15 9 93 -24 85 -37 -3 -6 -1 -7 6 -3 11 7 115 -46
126 -65 9 -13 -9 -11 -25 4 -12 10 -12 9 -1 -5 9 -12 21 -16 37 -12 25 6 31
-5 13 -23 -8 -8 -7 -13 2 -18 8 -5 10 -4 5 4 -4 6 -1 14 7 17 19 7 99 -45 90
-59 -3 -6 -1 -7 6 -3 14 9 43 -12 36 -24 -3 -5 0 -12 6 -16 8 -4 9 -3 5 4 -14
22 6 12 55 -30 31 -26 48 -47 44 -56 -4 -11 -2 -12 8 -4 10 8 16 6 25 -8 6
-10 8 -20 4 -23 -4 -2 -2 -3 4 -1 6 1 17 -2 24 -6 11 -7 11 -11 0 -27 -12 -15
-12 -16 0 -5 19 17 33 15 26 -4 -3 -9 -2 -12 5 -9 11 8 40 -25 33 -37 -3 -4 3
-5 13 -1 10 3 15 3 11 -2 -4 -4 4 -17 18 -27 18 -15 23 -26 19 -42 -4 -14 -3
-17 3 -8 10 14 12 11 76 -73 21 -27 27 -38 13 -23 -20 22 -26 24 -31 12 -3 -8
-2 -13 2 -11 23 15 150 -152 135 -176 -3 -6 -1 -7 4 -4 13 8 26 -20 16 -35 -3
-6 -1 -8 4 -5 6 4 14 0 17 -9 4 -10 2 -13 -7 -9 -6 4 -3 -1 7 -9 11 -9 16 -16
11 -16 -4 0 0 -9 9 -19 10 -11 15 -25 10 -32 -5 -8 -3 -10 6 -4 10 6 12 4 6
-11 -4 -10 -4 -15 0 -11 10 10 36 -52 27 -66 -3 -5 -1 -7 4 -4 21 13 124 -309
148 -463 1 -8 5 -22 8 -30 6 -16 19 -96 37 -220 23 -157 37 -641 20 -681 -7
-18 -9 -4 -9 61 1 47 -1 92 -4 100 -3 8 -8 55 -12 103 -5 77 -12 128 -41 302
-3 22 -7 52 -8 67 0 14 -4 24 -7 23 -4 -3 -26 76 -43 158 -2 7 -6 19 -9 27
-23 60 -37 122 -31 132 4 7 3 10 -1 5 -5 -4 -24 34 -43 85 -37 101 -72 180
-133 301 -22 42 -37 77 -34 77 3 0 -4 10 -15 22 -11 12 -18 28 -15 36 3 8 0
10 -7 6 -8 -5 -9 -2 -5 10 4 9 3 15 -2 11 -11 -6 -53 58 -49 77 2 7 -2 12 -9
11 -14 -3 -37 33 -29 45 3 4 0 14 -6 22 -8 12 -9 12 -4 -2 3 -10 4 -18 1 -18
-7 0 -68 95 -68 107 0 7 -3 10 -7 8 -4 -3 -34 30 -68 73 -33 42 -77 94 -96
115 -20 22 -33 44 -30 50 4 7 3 9 -1 4 -11 -10 -46 23 -38 36 3 5 2 7 -4 4
-11 -7 -89 72 -85 86 1 5 -2 6 -7 3 -13 -9 -75 50 -67 63 4 7 1 9 -8 5 -9 -4
-34 11 -63 38 -26 25 -63 55 -81 68 -26 18 -31 25 -20 32 9 7 8 8 -6 4 -12 -4
-35 7 -69 31 -28 21 -87 59 -132 86 -80 47 -91 57 -38 36z m-2072 -1444 c22
-3 81 -17 131 -31 l91 -26 -13 -50 c-27 -104 23 -211 122 -262 100 -50 238
-12 295 81 25 41 23 41 142 -34 98 -62 98 -61 19 -115 -315 -217 -758 -42
-847 336 -21 86 -20 119 3 113 9 -3 35 -8 57 -12z m2690 -42 c-27 -221 -186
-407 -400 -469 -87 -25 -231 -23 -315 6 -99 33 -218 109 -205 131 3 5 49 34
102 66 91 55 97 56 107 38 24 -43 87 -94 137 -110 112 -38 238 19 283 127 18
41 21 133 7 171 -9 24 -8 25 82 50 91 26 169 44 196 46 10 1 12 -11 6 -56z
m-3538 -1140 c-2 -21 -4 -6 -4 32 0 39 2 55 4 38 2 -18 2 -50 0 -70z m4320
-20 c-2 -21 -4 -4 -4 37 0 41 2 58 4 38 2 -21 2 -55 0 -75z m-8099 -2148 c-16
-13 -28 -26 -28 -29 0 -3 -20 -33 -43 -68 -24 -35 -58 -91 -74 -125 -17 -34
-34 -59 -37 -56 -3 4 -6 -1 -6 -10 0 -9 -20 -67 -44 -129 -81 -209 -158 -458
-222 -718 -21 -85 -41 -157 -46 -158 -4 -2 -6 -7 -3 -12 3 -5 -8 -66 -24 -137
-16 -70 -41 -186 -56 -258 -14 -71 -29 -137 -32 -145 -3 -8 -7 -26 -8 -40 -3
-26 -26 -153 -51 -280 -19 -100 -19 -101 -34 -207 -8 -51 -15 -91 -17 -89 -2
2 6 104 17 227 12 123 24 251 26 284 3 33 9 96 14 140 5 44 12 114 15 155 2
41 7 95 9 120 3 25 8 77 12 115 4 39 7 80 7 93 0 12 3 22 7 22 5 0 6 9 3 20
-3 11 0 73 6 137 7 65 14 143 17 173 16 184 34 287 45 269 6 -9 7 -2 3 19 -4
20 -3 32 4 32 7 0 9 7 5 17 -5 12 -3 14 7 8 10 -6 12 -4 7 8 -8 22 12 79 25
71 6 -4 8 -1 6 7 -3 8 0 25 7 39 46 93 66 125 76 122 6 -1 8 2 4 8 -7 12 70
120 85 120 6 0 9 4 8 8 -8 26 196 200 299 256 39 21 42 19 11 -9z m11882 3 c0
-5 5 -6 10 -3 6 3 10 2 10 -3 0 -6 10 -12 23 -16 34 -9 139 -95 131 -108 -5
-7 -3 -8 5 -3 8 5 30 -10 62 -41 37 -36 48 -54 44 -71 -2 -13 0 -21 5 -18 5 3
16 -7 24 -22 8 -15 15 -23 16 -17 0 6 -9 23 -21 38 -11 14 -16 26 -11 26 5 0
24 -21 42 -47 19 -27 27 -43 19 -36 -10 8 -19 9 -29 2 -13 -9 -13 -10 0 -6 21
6 62 -25 83 -65 19 -33 19 -33 -1 -9 -15 19 -21 21 -27 10 -5 -8 -5 -11 0 -7
10 9 77 -71 69 -83 -3 -5 -1 -9 5 -9 14 0 66 -141 89 -245 21 -92 33 -194 37
-301 1 -33 4 -65 8 -70 3 -6 9 -57 13 -115 4 -57 8 -113 9 -124 12 -114 15
-149 20 -205 3 -36 10 -108 15 -160 5 -52 12 -129 15 -170 3 -41 7 -88 10
-105 2 -16 7 -59 9 -95 15 -195 28 -327 32 -340 3 -10 2 -11 -4 -5 -9 10 -64
323 -66 375 -1 14 -4 27 -8 30 -3 3 -9 25 -12 50 -3 25 -15 90 -26 145 -11 54
-18 105 -15 113 2 7 1 11 -3 8 -5 -3 -17 36 -26 87 -36 193 -167 704 -233 909
-19 59 -31 113 -27 120 4 7 3 10 -1 5 -5 -4 -25 37 -45 90 -21 54 -47 121 -60
148 -52 117 -92 195 -101 201 -6 3 -8 13 -4 22 3 9 3 13 -1 9 -4 -4 -21 12
-37 36 -17 23 -42 55 -56 70 -19 20 -21 26 -8 22 9 -4 17 -11 17 -17z m-9262
-2195 c-28 -49 -59 -99 -68 -113 -9 -14 -20 -32 -24 -40 -3 -8 -17 -33 -29
-55 -13 -22 -40 -71 -62 -110 -21 -38 -42 -74 -48 -80 -7 -7 -7 -5 -2 4 5 9 4
12 -3 7 -6 -4 -8 -14 -5 -23 5 -12 3 -14 -7 -8 -9 5 -11 4 -6 -4 5 -7 -2 -28
-16 -49 -12 -20 -32 -54 -42 -74 -10 -21 -23 -35 -29 -31 -6 3 -7 1 -3 -5 4
-7 -14 -49 -40 -95 -25 -45 -69 -126 -97 -179 -29 -53 -56 -94 -62 -91 -5 4
-7 3 -3 -2 4 -4 0 -21 -8 -38 -13 -24 -18 -27 -26 -16 -7 10 -8 8 -3 -8 8 -27
-31 -107 -47 -97 -6 4 -8 3 -5 -4 9 -14 -3 -43 -14 -36 -5 3 -9 2 -8 -3 4 -24
-2 -43 -13 -37 -7 4 -8 3 -4 -4 4 -7 -4 -30 -17 -52 -19 -32 -26 -37 -37 -27
-12 10 -12 9 -1 -5 11 -15 3 -35 -54 -145 -37 -70 -74 -135 -81 -143 -7 -8
-13 -17 -13 -20 0 -18 -15 -39 -24 -33 -5 3 -7 1 -4 -5 10 -15 -3 -43 -16 -35
-5 3 -7 1 -3 -5 6 -10 -179 -392 -196 -403 -5 -3 -10 -10 -9 -15 0 -21 -113
-242 -122 -237 -6 3 -7 1 -3 -5 8 -13 -38 -105 -48 -95 -4 4 -4 -1 0 -11 5
-13 4 -17 -4 -12 -8 5 -10 1 -5 -10 4 -12 3 -15 -5 -10 -8 5 -10 2 -6 -9 4 -9
-6 -31 -22 -52 -15 -20 -22 -33 -16 -29 7 4 -6 -30 -29 -76 -25 -52 -45 -82
-55 -82 -12 2 -12 -1 -2 -13 9 -11 9 -16 -1 -22 -7 -5 -12 -11 -12 -15 3 -20
0 -26 -11 -20 -6 4 -8 3 -5 -3 7 -12 -8 -49 -83 -210 -27 -56 -51 -111 -55
-122 -3 -12 -11 -21 -16 -21 -6 0 -8 -4 -5 -9 3 -5 -9 -41 -28 -81 -18 -40
-35 -67 -38 -59 -3 8 -5 -1 -5 -19 0 -19 -6 -38 -14 -43 -8 -5 -11 -9 -6 -9 4
0 0 -15 -10 -32 -9 -18 -18 -37 -19 -43 -9 -40 -122 -293 -129 -288 -4 5 -5 1
-3 -7 3 -8 -1 -31 -9 -50 -40 -97 -163 -427 -163 -437 0 -7 -5 -13 -12 -13 -6
0 -9 -3 -5 -6 3 -3 -5 -36 -19 -73 -14 -36 -27 -77 -30 -90 -3 -13 -10 -34
-16 -45 -7 -12 -13 -27 -14 -35 -3 -16 -57 -193 -79 -256 -7 -22 -16 -55 -20
-73 -4 -18 -11 -30 -16 -27 -5 4 -6 -1 -3 -9 3 -8 0 -31 -6 -51 -14 -41 -14
-45 -25 -102 -4 -25 -12 -40 -18 -36 -5 3 -7 1 -3 -5 3 -6 -3 -53 -15 -104
-71 -319 -97 -636 -68 -845 13 -97 51 -213 89 -276 l30 -48 -54 5 c-57 5 -154
33 -171 48 -5 5 4 4 20 -2 23 -9 27 -9 18 1 -6 6 -24 11 -40 11 -28 0 -89 35
-79 46 3 2 14 -1 23 -9 16 -13 17 -12 4 4 -8 10 -21 15 -29 12 -17 -6 -44 13
-36 26 3 5 -3 6 -12 2 -14 -5 -16 -3 -10 12 4 11 4 16 0 12 -10 -10 -45 23
-37 36 3 5 1 7 -4 4 -6 -4 -16 -1 -22 7 -9 11 -9 15 1 19 8 4 7 6 -4 6 -21 1
-70 83 -70 116 0 15 -5 22 -11 18 -6 -4 -8 0 -4 9 3 9 0 21 -6 27 -14 14 -17
266 -3 296 5 11 10 31 12 45 8 89 45 261 54 255 4 -2 5 6 3 18 -2 12 10 72 27
132 17 61 31 116 32 123 1 6 5 12 10 12 5 0 6 4 3 10 -8 13 26 120 38 120 5 0
7 6 4 14 -3 7 2 38 10 67 13 45 17 51 25 34 7 -17 8 -16 3 5 -6 33 24 142 38
133 6 -4 8 0 4 10 -3 10 -3 17 1 17 4 0 8 12 9 27 0 15 6 29 12 31 6 2 9 7 6
12 -7 11 25 100 36 100 4 0 6 6 3 14 -3 8 0 17 5 21 6 3 9 11 6 16 -4 5 -1 9
5 9 6 0 8 4 5 10 -3 5 0 20 7 32 7 13 11 27 10 32 -2 5 4 6 13 2 10 -3 13 -2
10 5 -4 5 -1 17 7 26 11 14 11 16 -1 8 -11 -6 -13 -4 -7 11 5 10 11 27 13 36
3 10 9 16 13 13 4 -3 8 7 8 22 0 15 5 29 11 31 6 2 9 8 6 13 -3 4 1 22 10 39
8 16 15 32 15 35 -1 4 7 14 18 23 10 9 12 13 4 8 -11 -8 -11 -5 0 20 7 16 15
31 18 34 3 3 6 12 8 20 6 34 25 69 33 64 5 -3 7 -10 4 -15 -4 -5 -2 -9 3 -9 6
0 9 11 8 24 0 13 -4 22 -8 19 -12 -7 -10 0 19 63 14 33 35 65 45 72 10 7 18
18 18 24 0 7 -7 3 -15 -8 -9 -12 -7 1 6 33 12 29 25 50 30 47 5 -3 6 3 2 12
-4 12 -3 15 5 10 8 -4 10 -2 6 8 -6 15 31 96 49 108 6 4 15 4 21 1 5 -3 6 -1
2 6 -4 6 -12 9 -17 6 -5 -3 -6 1 -3 9 3 9 10 13 16 10 5 -3 9 0 7 7 -4 32 1
50 13 43 6 -4 8 -3 5 3 -7 11 50 134 67 145 6 4 8 8 3 8 -11 0 43 104 59 113
8 5 12 12 9 17 -8 13 57 140 68 133 6 -3 7 -1 3 5 -8 13 72 172 86 172 5 0 7
4 3 9 -3 6 5 20 17 32 13 12 17 19 11 15 -9 -5 -11 -2 -7 8 3 9 10 13 15 10 5
-3 6 1 3 9 -3 8 2 20 11 27 8 7 15 18 15 25 0 20 83 165 91 159 5 -3 6 3 2 12
-5 13 -3 15 7 9 9 -5 11 -4 6 3 -11 19 13 54 32 47 13 -5 14 -3 5 6 -14 14 14
82 31 72 6 -3 8 -3 4 2 -4 4 11 42 34 84 53 98 63 112 73 103 5 -4 5 -2 1 5
-6 12 47 112 68 125 6 4 7 8 3 8 -9 0 24 60 33 60 4 0 7 6 7 13 0 6 10 29 23
50 20 34 31 42 53 38 5 -1 6 3 2 9 -3 6 -11 8 -16 5 -18 -12 -9 5 24 42 17 20
25 33 18 28 -9 -5 -5 5 7 22 12 17 22 36 22 42 0 7 7 14 15 17 8 4 12 10 10
15 -3 4 3 17 15 29 11 11 21 23 23 28 1 4 6 6 10 4 5 -1 6 2 2 8 -9 14 45 101
57 93 7 -3 8 -1 4 5 -4 7 17 50 45 97 50 81 80 119 66 82 -9 -24 0 -21 14 4 8
15 8 19 0 15 -6 -4 -11 -3 -11 1 0 15 71 123 81 123 6 0 8 4 5 9 -3 4 2 17 10
27 9 10 12 13 8 5 -5 -9 -3 -12 5 -7 6 4 9 11 6 16 -6 10 73 140 86 140 5 0 8
5 6 12 -1 7 4 12 12 13 8 0 16 7 18 15 4 13 3 13 -6 0 -6 -9 -11 -10 -11 -3 0
6 6 18 13 25 7 7 16 21 20 31 4 10 11 15 17 12 5 -3 7 0 5 8 -3 7 3 22 15 32
11 10 20 22 20 27 0 15 88 146 118 174 15 15 20 23 12 19 -11 -6 -10 -3 3 12
9 11 17 25 17 31 0 6 8 15 18 21 9 5 16 12 15 15 -5 10 68 120 96 145 14 13
21 20 14 17 -6 -4 4 19 24 49 26 40 41 54 52 50 12 -5 13 -3 4 6 -9 9 -7 18 9
40 12 15 24 26 28 24 4 -3 7 3 6 13 0 9 5 16 12 14 8 -1 11 2 7 7 -8 14 25 62
38 54 5 -3 7 -2 4 4 -8 12 50 102 69 110 8 3 11 9 8 14 -3 5 2 12 10 15 9 3
13 10 10 15 -3 5 2 12 10 15 9 3 16 11 16 16 0 11 38 68 45 68 3 0 -18 -39
-47 -87z m6652 -2 c19 -28 54 -77 77 -108 23 -31 39 -61 37 -65 -3 -4 -1 -8 5
-8 5 0 27 -26 48 -57 20 -32 42 -61 48 -65 5 -4 7 -8 3 -8 -4 0 4 -12 18 -27
13 -14 22 -28 20 -30 -2 -3 5 -14 16 -25 11 -11 18 -28 15 -38 -3 -12 0 -17 8
-14 13 5 48 -41 48 -63 0 -7 3 -10 7 -8 6 4 58 -73 60 -90 1 -5 7 -13 15 -18
16 -8 78 -107 68 -107 -4 0 0 -6 9 -12 22 -18 143 -202 127 -193 -8 5 0 -7 16
-25 17 -18 24 -30 18 -26 -9 5 -11 2 -7 -8 3 -9 9 -14 12 -13 4 1 8 -2 9 -6 1
-5 9 -14 19 -21 11 -8 14 -18 9 -26 -6 -9 -4 -11 5 -5 10 6 12 4 7 -8 -3 -9 1
-21 11 -29 16 -12 16 -11 2 7 -14 19 -14 19 3 6 13 -11 15 -17 6 -28 -10 -11
-8 -12 6 -6 15 5 17 3 12 -11 -4 -9 -3 -15 2 -12 10 7 73 -92 66 -104 -3 -5 0
-12 6 -16 8 -5 10 -2 5 7 -4 8 -1 5 8 -5 8 -10 13 -22 11 -26 -3 -5 2 -11 11
-14 9 -4 14 -13 10 -22 -3 -8 -2 -13 2 -10 11 7 45 -52 39 -68 -3 -7 4 -23 15
-37 l20 -24 -16 28 c-9 15 -13 27 -9 27 11 0 66 -89 66 -106 0 -7 5 -10 10 -7
6 4 8 -1 4 -11 -4 -10 -3 -15 3 -11 5 3 14 -4 20 -16 10 -17 9 -20 -2 -14 -7
4 -1 -4 15 -19 27 -27 36 -43 17 -31 -6 3 -7 -1 -4 -9 3 -9 10 -14 14 -11 9 5
58 -73 52 -83 -2 -2 0 -8 5 -11 29 -20 69 -102 42 -85 -8 4 -8 0 0 -15 14 -25
22 -28 15 -3 -4 12 1 10 16 -7 12 -14 18 -31 15 -40 -3 -8 -3 -12 1 -8 7 7 13
0 50 -58 14 -21 15 -27 4 -21 -8 5 -4 -3 9 -17 14 -15 21 -27 16 -27 -5 0 -1
-6 10 -13 11 -9 15 -19 10 -27 -5 -8 -4 -11 2 -7 12 8 75 -101 66 -115 -4 -7
-1 -8 7 -3 10 6 12 4 7 -9 -4 -10 -3 -15 3 -11 6 3 13 -2 17 -12 4 -10 20 -39
36 -65 15 -26 25 -53 21 -59 -4 -7 -3 -9 2 -6 6 3 15 -3 22 -14 7 -10 8 -19 3
-19 -5 0 -12 6 -14 13 -4 7 -6 8 -6 1 -1 -7 10 -19 24 -28 14 -9 23 -21 20
-26 -4 -6 -3 -10 2 -10 13 0 44 -61 36 -72 -3 -6 -2 -8 4 -5 9 6 50 -70 45
-86 -1 -5 2 -6 8 -2 9 5 15 -9 8 -18 -2 -2 5 -11 15 -21 9 -10 15 -22 12 -27
-4 -5 -1 -9 5 -9 6 0 8 -4 5 -10 -3 -5 -1 -10 4 -10 13 0 62 -95 54 -104 -4
-3 -1 -6 6 -6 7 0 9 -5 6 -10 -4 -6 -11 -7 -17 -4 -7 5 -8 2 -4 -5 5 -7 14
-10 21 -7 12 4 53 -70 47 -87 -1 -5 2 -6 8 -2 9 6 14 -7 11 -27 0 -5 3 -8 8
-8 5 0 12 -7 15 -16 4 -10 2 -13 -7 -9 -6 4 -4 0 5 -8 10 -8 15 -17 11 -20 -3
-4 -2 -7 4 -7 12 0 26 -37 23 -59 -1 -7 3 -10 8 -7 6 3 12 -1 15 -8 3 -8 1
-17 -6 -20 -7 -2 -5 -5 4 -5 19 -1 32 -27 22 -43 -4 -7 -1 -8 7 -3 8 5 11 3 8
-6 -2 -7 3 -22 13 -32 10 -11 15 -27 12 -36 -4 -9 -2 -12 2 -8 11 10 47 -62
38 -76 -3 -5 -1 -7 4 -4 11 7 36 -49 28 -63 -2 -4 3 -16 11 -26 9 -10 12 -12
8 -4 -5 10 -4 12 3 5 6 -5 14 -21 18 -34 5 -18 4 -22 -5 -16 -9 5 -11 4 -6 -4
4 -6 12 -9 17 -6 8 6 13 -8 10 -27 0 -5 3 -8 8 -8 13 0 34 -57 25 -71 -4 -7
-3 -10 3 -6 5 3 19 -14 31 -39 13 -26 17 -42 10 -38 -7 4 -5 -2 5 -13 9 -11
17 -27 17 -36 0 -9 4 -17 9 -17 4 0 25 -42 46 -92 21 -51 42 -98 47 -105 6 -7
7 -17 3 -23 -3 -5 -1 -10 5 -10 6 0 8 -5 5 -11 -4 -5 0 -18 9 -28 19 -21 68
-141 58 -141 -4 0 -1 -4 6 -9 7 -4 14 -18 15 -29 1 -12 5 -22 10 -22 5 0 7 -6
4 -12 -2 -7 2 -21 10 -30 8 -9 16 -28 17 -42 0 -13 3 -22 5 -20 3 3 12 -15 21
-38 12 -30 14 -47 7 -56 -7 -9 -7 -12 2 -10 14 3 64 -118 55 -133 -3 -5 -1 -9
3 -9 13 0 55 -138 47 -152 -4 -6 -3 -8 3 -5 5 3 19 -24 31 -61 57 -181 72
-234 66 -243 -3 -6 2 -19 11 -29 10 -11 15 -28 12 -40 -3 -11 0 -20 6 -20 6 0
7 -3 4 -7 -4 -3 -2 -12 3 -19 6 -6 10 -16 9 -20 -2 -5 6 -36 16 -69 10 -33 19
-76 20 -96 2 -19 8 -46 15 -58 6 -13 10 -31 7 -42 -3 -10 -1 -19 3 -21 9 -3
22 -82 23 -140 1 -21 4 -33 8 -26 11 18 22 -139 16 -224 -7 -85 -50 -203 -70
-191 -6 4 -8 0 -5 -8 6 -16 -70 -128 -98 -143 -10 -6 -23 -16 -29 -22 -20 -21
-70 -48 -84 -46 -7 2 -10 -1 -7 -6 12 -19 -143 -71 -210 -69 l-32 1 28 45
c112 182 131 523 54 946 -14 77 -37 186 -50 243 -14 56 -22 108 -18 114 4 7 3
8 -4 4 -7 -4 -12 -1 -12 7 0 9 -19 80 -41 159 -23 78 -42 148 -44 153 -1 6 -7
22 -13 36 -26 65 -34 110 -20 127 11 15 11 15 -3 5 -14 -11 -17 -7 -28 30 -7
23 -16 51 -20 62 -5 11 -28 72 -51 135 -23 63 -48 131 -55 150 -8 19 -25 64
-38 100 -14 36 -40 103 -58 150 -18 47 -34 87 -34 90 -1 3 -6 16 -12 30 -6 14
-18 42 -26 62 -8 20 -13 39 -9 42 3 3 1 6 -4 6 -6 0 -16 17 -23 38 -7 20 -25
62 -39 92 -13 30 -25 68 -25 83 0 15 -3 23 -7 17 -4 -6 -17 12 -28 41 -12 28
-19 56 -15 62 4 6 1 7 -7 2 -9 -6 -10 -2 -5 15 4 14 3 20 -3 16 -9 -5 -31 37
-83 164 -12 30 -27 60 -32 67 -5 7 -5 18 -1 24 5 8 3 9 -6 4 -10 -6 -12 -4 -7
8 3 10 3 17 -2 17 -5 0 -21 28 -36 62 -15 34 -56 121 -91 195 -35 73 -62 139
-60 146 1 6 1 8 -2 3 -2 -5 -22 28 -43 73 -22 45 -36 87 -33 93 4 6 3 8 -3 5
-6 -4 -15 5 -22 19 -8 18 -8 23 0 18 8 -5 8 -1 0 14 -6 11 -15 22 -20 24 -15
6 -282 549 -275 560 4 6 3 8 -2 5 -13 -8 -126 211 -118 226 4 7 3 9 -1 4 -11
-9 -116 183 -110 201 3 7 1 11 -4 8 -10 -6 -56 81 -54 102 0 7 -2 11 -5 8 -10
-10 -41 52 -37 74 2 11 0 18 -5 15 -9 -6 -26 21 -91 140 -24 44 -58 107 -76
140 -18 33 -42 78 -53 100 -12 22 -32 58 -45 80 -13 22 -22 46 -20 53 3 7 1
11 -3 8 -12 -7 -44 52 -36 66 4 6 3 8 -2 5 -9 -5 -77 104 -74 119 1 4 -2 10
-7 13 -16 11 -66 104 -52 97 8 -4 7 -2 -2 6 -21 18 -44 60 -40 77 1 8 -2 10
-10 5 -9 -5 -10 -2 -6 10 4 10 3 15 -3 11 -12 -8 -33 33 -26 51 3 8 2 13 -3
10 -11 -7 -19 2 -80 109 -52 91 -46 89 19 -4z m3327 -273 c-3 -7 -5 -2 -5 12
0 14 2 19 5 13 2 -7 2 -19 0 -25z"/>
<path d="M30483 34335 c0 -8 4 -12 9 -9 5 3 6 10 3 15 -9 13 -12 11 -12 -6z"/>
<path d="M29979 33973 c-13 -16 -12 -17 4 -4 16 13 21 21 13 21 -2 0 -10 -8
-17 -17z"/>
<path d="M29899 33893 c-13 -16 -12 -17 4 -4 9 7 17 15 17 17 0 8 -8 3 -21
-13z"/>
<path d="M29839 33883 c-13 -16 -12 -17 4 -4 16 13 21 21 13 21 -2 0 -10 -8
-17 -17z"/>
<path d="M29806 33838 c3 -5 10 -6 15 -3 13 9 11 12 -6 12 -8 0 -12 -4 -9 -9z"/>
<path d="M32400 34336 c0 -3 9 -10 20 -16 11 -6 20 -8 20 -6 0 3 -9 10 -20 16
-11 6 -20 8 -20 6z"/>
<path d="M32590 34230 c0 -5 5 -10 11 -10 5 0 7 5 4 10 -3 6 -8 10 -11 10 -2
0 -4 -4 -4 -10z"/>
<path d="M32830 34100 c6 -11 13 -20 16 -20 2 0 0 9 -6 20 -6 11 -13 20 -16
20 -2 0 0 -9 6 -20z"/>
<path d="M32886 33987 c3 -10 9 -15 12 -12 3 3 0 11 -7 18 -10 9 -11 8 -5 -6z"/>
<path d="M33066 33877 c3 -10 9 -15 12 -12 3 3 0 11 -7 18 -10 9 -11 8 -5 -6z"/>
<path d="M32936 33867 c3 -10 9 -15 12 -12 3 3 0 11 -7 18 -10 9 -11 8 -5 -6z"/>
<path d="M33116 33817 c3 -10 9 -15 12 -12 3 3 0 11 -7 18 -10 9 -11 8 -5 -6z"/>
<path d="M33016 33792 c-3 -5 1 -9 9 -9 8 0 12 4 9 9 -3 4 -7 8 -9 8 -2 0 -6
-4 -9 -8z"/>
<path d="M33225 33660 c-4 -6 -11 -7 -17 -4 -7 4 -8 2 -4 -5 6 -9 11 -9 22 0
14 11 18 19 10 19 -3 0 -8 -5 -11 -10z"/>
<path d="M33391 33284 c0 -11 3 -14 6 -6 3 7 2 16 -1 19 -3 4 -6 -2 -5 -13z"/>
<path d="M25399 29583 c-13 -16 -12 -17 4 -4 16 13 21 21 13 21 -2 0 -10 -8
-17 -17z"/>
<path d="M25317 29509 c7 -7 15 -10 18 -7 3 3 -2 9 -12 12 -14 6 -15 5 -6 -5z"/>
<path d="M25243 29444 l-22 -24 21 4 c13 1 23 11 25 24 4 26 4 26 -24 -4z"/>
<path d="M25179 29333 c-13 -16 -12 -17 4 -4 16 13 21 21 13 21 -2 0 -10 -8
-17 -17z"/>
<path d="M25060 29184 c0 -8 5 -12 10 -9 6 4 8 11 5 16 -9 14 -15 11 -15 -7z"/>
<path d="M24932 28545 c0 -16 2 -22 5 -12 2 9 2 23 0 30 -3 6 -5 -1 -5 -18z"/>
<path d="M24852 27720 c0 -14 2 -19 5 -12 2 6 2 18 0 25 -3 6 -5 1 -5 -13z"/>
<path d="M24852 27620 c0 -14 2 -19 5 -12 2 6 2 18 0 25 -3 6 -5 1 -5 -13z"/>
<path d="M37463 29605 c0 -8 4 -12 9 -9 5 3 6 10 3 15 -9 13 -12 11 -12 -6z"/>
<path d="M37491 29587 c2 -1 13 -9 24 -17 19 -14 19 -14 6 3 -7 9 -18 17 -24
17 -6 0 -8 -1 -6 -3z"/>
<path d="M37535 29551 c-6 -11 13 -26 22 -17 4 3 1 6 -6 6 -7 0 -9 5 -6 10 3
6 4 10 1 10 -3 0 -7 -4 -11 -9z"/>
<path d="M37821 28824 c0 -11 3 -14 6 -6 3 7 2 16 -1 19 -3 4 -6 -2 -5 -13z"/>
<path d="M38022 28020 c0 -14 2 -19 5 -12 2 6 2 18 0 25 -3 6 -5 1 -5 -13z"/>
<path d="M27786 26956 c6 -15 4 -17 -6 -11 -9 6 -11 4 -5 -4 5 -9 10 -10 18
-2 8 8 7 14 -2 24 -10 10 -11 8 -5 -7z"/>
<path d="M27639 26713 c-13 -16 -12 -17 4 -4 16 13 21 21 13 21 -2 0 -10 -8
-17 -17z"/>
<path d="M27207 26059 c7 -7 15 -10 18 -7 3 3 -2 9 -12 12 -14 6 -15 5 -6 -5z"/>
<path d="M27295 26009 c-4 -6 -5 -12 -2 -15 2 -3 7 2 10 11 7 17 1 20 -8 4z"/>
<path d="M26695 25210 c-3 -6 1 -7 9 -4 18 7 21 14 7 14 -6 0 -13 -4 -16 -10z"/>
<path d="M26675 25119 c-4 -6 -5 -12 -2 -15 2 -3 7 2 10 11 7 17 1 20 -8 4z"/>
<path d="M26516 24893 c-6 -14 -5 -15 5 -6 7 7 10 15 7 18 -3 3 -9 -2 -12 -12z"/>
<path d="M26376 24618 c3 -5 10 -6 15 -3 13 9 11 12 -6 12 -8 0 -12 -4 -9 -9z"/>
<path d="M26260 24390 c-6 -11 -8 -20 -6 -20 3 0 10 9 16 20 6 11 8 20 6 20
-3 0 -10 -9 -16 -20z"/>
<path d="M26040 23921 c0 -6 4 -13 10 -16 6 -3 7 1 4 9 -7 18 -14 21 -14 7z"/>
<path d="M25485 22519 c-4 -6 -4 -13 -1 -16 3 -4 6 -1 6 6 0 7 5 9 12 5 7 -4
8 -3 4 4 -9 15 -13 15 -21 1z"/>
<path d="M25332 21805 c0 -16 2 -22 5 -12 2 9 2 23 0 30 -3 6 -5 -1 -5 -18z"/>
<path d="M34970 27151 c0 -6 4 -13 10 -16 6 -3 7 1 4 9 -7 18 -14 21 -14 7z"/>
<path d="M35049 27033 c-13 -16 -12 -17 4 -4 16 13 21 21 13 21 -2 0 -10 -8
-17 -17z"/>
<path d="M35220 26811 c5 -11 15 -23 21 -27 6 -3 3 5 -6 20 -20 30 -30 35 -15
7z"/>
<path d="M35336 26608 c3 -5 10 -6 15 -3 13 9 11 12 -6 12 -8 0 -12 -4 -9 -9z"/>
<path d="M35380 26401 c0 -6 4 -13 10 -16 6 -3 7 1 4 9 -7 18 -14 21 -14 7z"/>
<path d="M35556 26237 c3 -10 9 -15 12 -12 3 3 0 11 -7 18 -10 9 -11 8 -5 -6z"/>
<path d="M35870 25741 c0 -6 4 -13 10 -16 6 -3 7 1 4 9 -7 18 -14 21 -14 7z"/>
<path d="M36004 25519 c-3 -6 -2 -15 3 -20 5 -5 9 -1 9 11 0 23 -2 24 -12 9z"/>
<path d="M36120 25351 c0 -11 4 -22 9 -25 4 -3 6 6 3 19 -5 30 -12 33 -12 6z"/>
<path d="M36566 24453 c-6 -14 -5 -15 5 -6 7 7 10 15 7 18 -3 3 -9 -2 -12 -12z"/>
<path d="M36800 24001 c0 -6 4 -13 10 -16 6 -3 7 1 4 9 -7 18 -14 21 -14 7z"/>
<path d="M36891 23834 c0 -11 3 -14 6 -6 3 7 2 16 -1 19 -3 4 -6 -2 -5 -13z"/>
<path d="M36975 23660 c-3 -6 1 -7 9 -4 18 7 21 14 7 14 -6 0 -13 -4 -16 -10z"/>
<path d="M37375 21290 c-3 -5 -1 -10 4 -10 6 0 11 5 11 10 0 6 -2 10 -4 10 -3
0 -8 -4 -11 -10z"/>
<path d="M34225 20306 c-108 -26 -155 -60 -296 -213 -42 -46 -78 -83 -81 -83
-2 0 -25 20 -50 44 -58 55 -153 103 -223 111 -121 15 -1588 -99 -1677 -131
-99 -35 -184 -108 -235 -201 l-29 -52 -89 64 c-119 85 -273 172 -423 240 -491
222 -980 268 -1507 141 -459 -111 -783 -313 -1116 -695 -62 -72 -115 -128
-118 -125 -3 3 -8 86 -11 184 l-6 178 -37 75 c-72 146 -212 236 -368 237 -113
0 -1551 -297 -1641 -340 -24 -11 -56 -31 -73 -44 -34 -28 -14 -34 -270 89
-669 323 -700 334 -837 315 -129 -18 -260 -116 -313 -232 -14 -31 -63 -238
-120 -503 -52 -247 -98 -452 -101 -454 -6 -6 -52 41 -174 178 -41 46 -79 89
-85 95 -5 6 -43 48 -83 93 -87 97 -143 137 -236 165 -144 44 -301 4 -407 -102
-53 -53 -41 -30 -372 -714 l-43 -89 -179 294 c-242 399 -276 449 -327 485
-138 99 -294 118 -433 53 -54 -26 -786 -510 -1123 -744 -224 -155 -263 -192
-309 -291 -25 -53 -28 -70 -28 -164 0 -134 14 -167 169 -379 449 -618 973
-1369 1438 -2061 282 -420 488 -736 488 -749 0 -6 -7 -11 -15 -11 -42 0 -130
-46 -184 -95 -96 -90 -117 -142 -157 -383 -125 -775 -280 -1891 -388 -2802
-74 -623 -78 -662 -73 -733 10 -122 81 -239 185 -306 26 -17 146 -64 267 -105
373 -126 480 -164 774 -272 155 -58 310 -110 342 -115 196 -31 400 100 452
291 9 30 30 174 47 320 17 146 33 276 36 290 5 23 24 7 217 -191 232 -237 265
-260 391 -282 125 -21 257 21 350 111 65 63 85 101 156 295 34 92 66 167 70
167 5 0 57 -93 116 -207 59 -115 130 -252 158 -306 85 -164 183 -245 330 -270
113 -19 253 19 331 90 26 24 200 206 391 410 l51 55 54 -41 c63 -48 158 -81
234 -81 30 0 201 25 382 55 579 96 1153 177 1766 249 l298 35 47 -33 c94 -67
188 -89 326 -75 673 67 1468 124 2128 150 304 13 308 13 330 -7 74 -67 112
-77 428 -119 146 -20 384 -54 530 -76 435 -66 415 -63 481 -51 172 32 307 160
338 322 5 30 17 159 26 285 9 127 20 240 25 251 6 14 21 24 45 28 55 11 240
69 341 109 169 65 411 193 567 299 l57 39 0 -36 c0 -19 -20 -250 -45 -512 -25
-262 -45 -498 -45 -524 0 -151 113 -313 260 -371 47 -19 79 -22 210 -25 962
-18 1286 -29 1838 -59 l293 -15 72 -73 c103 -105 113 -108 577 -166 685 -87
1329 -185 1940 -296 249 -46 315 -44 423 9 79 39 136 92 180 168 34 59 356
1292 364 1396 7 95 -21 189 -80 269 -68 93 -156 144 -282 164 -38 6 -70 12
-71 13 -1 1 26 79 60 172 l63 170 69 8 c148 16 249 73 325 183 16 24 74 161
130 306 56 145 154 400 219 568 65 168 124 327 131 353 44 176 -59 386 -228
464 -60 28 -90 33 -638 118 -687 106 -1425 204 -2058 275 -238 27 -286 29
-340 20 -154 -28 -287 -148 -325 -295 -6 -22 -72 -422 -147 -890 -75 -467
-138 -852 -140 -854 -5 -5 -515 -25 -519 -20 -4 4 70 405 255 1377 118 621
132 719 113 798 -10 42 -59 136 -89 173 -15 17 -22 31 -15 31 6 0 110 -27 231
-60 359 -97 651 -159 984 -207 86 -12 186 -17 355 -17 223 -1 241 1 342 26
223 57 495 156 680 249 566 284 1049 728 1337 1232 308 536 418 1120 311 1650
-133 657 -639 1159 -1346 1336 -274 69 -924 117 -1731 128 l-442 6 -31 39
c-40 49 -123 105 -186 124 -158 48 -2820 184 -2992 153 -31 -6 -85 -25 -119
-43 l-62 -33 -24 26 c-13 14 -94 112 -179 216 -85 105 -171 205 -192 223 -51
45 -121 78 -191 91 -72 13 -105 13 -170 -3z m158 -250 c18 -7 48 -31 68 -52
36 -39 291 -352 494 -607 l110 -137 11 108 c12 128 33 171 98 204 l41 21 390
-12 c668 -21 1235 -49 1960 -97 511 -34 527 -36 571 -69 39 -30 64 -78 64
-122 l0 -28 227 3 c439 7 1482 -39 1798 -79 420 -52 762 -204 1022 -452 370
-354 516 -861 417 -1447 -58 -344 -230 -727 -467 -1043 -108 -145 -358 -400
-505 -516 -342 -269 -717 -456 -1142 -568 l-135 -35 -230 5 c-181 4 -264 11
-388 31 -315 51 -561 106 -925 208 -154 43 -188 55 -213 81 -40 40 -51 70 -50
138 l0 55 -39 -37 c-22 -21 -55 -41 -73 -44 -18 -4 -163 5 -323 19 -643 57
-1337 101 -1964 126 -302 13 -321 17 -367 76 -35 46 -37 87 -19 314 23 282 27
266 -45 179 -33 -41 -158 -199 -277 -351 -146 -185 -229 -283 -253 -297 -45
-26 -113 -27 -156 -3 -18 9 -87 76 -155 147 -67 72 -202 213 -299 314 l-177
183 -6 -98 c-4 -55 -11 -117 -17 -139 -14 -50 -64 -100 -114 -113 -22 -6 -175
-20 -340 -32 -165 -12 -442 -34 -616 -50 -247 -23 -325 -27 -355 -18 -48 13
-101 68 -108 111 -3 18 -9 135 -13 262 l-8 229 -58 -52 c-450 -408 -1325 -697
-1972 -652 -440 31 -747 149 -1090 418 -105 83 -303 286 -372 382 -34 48 -89
135 -122 195 l-61 110 1 -55 c0 -30 6 -221 13 -425 7 -203 9 -385 5 -404 -9
-43 -37 -81 -75 -103 -16 -9 -182 -49 -369 -87 -187 -39 -469 -100 -628 -135
-306 -68 -329 -70 -386 -29 -65 47 -61 24 -171 1118 -56 556 -112 1127 -126
1270 -14 143 -28 267 -31 275 -7 18 -7 18 -126 -515 -130 -581 -238 -1092
-358 -1685 -67 -336 -105 -503 -117 -519 -44 -60 -115 -87 -180 -69 -21 6
-124 75 -242 162 -515 383 -991 719 -1001 709 -22 -23 -500 -897 -762 -1393
-86 -164 -115 -190 -211 -190 -73 0 -98 26 -253 260 -816 1240 -1352 2020
-2011 2928 -64 88 -116 170 -122 193 -12 43 -2 98 25 136 19 26 335 247 810
563 457 305 498 330 547 330 48 0 98 -20 127 -51 23 -25 297 -472 521 -849 73
-124 138 -231 144 -237 9 -10 28 25 81 140 94 208 425 902 455 956 33 59 68
83 128 89 104 10 72 39 572 -523 117 -132 229 -257 247 -278 19 -22 36 -37 39
-35 2 3 35 155 73 339 97 464 210 987 223 1029 20 67 90 120 158 120 17 0 61
-13 98 -29 71 -30 528 -247 843 -398 l186 -90 1 33 c2 44 24 85 62 117 36 30
29 28 203 67 553 122 1302 270 1366 270 55 0 103 -27 137 -78 29 -42 31 -73
45 -742 6 -300 13 -546 14 -547 1 -2 21 48 45 110 93 238 249 507 416 717 101
126 327 346 434 422 356 253 906 382 1372 322 494 -64 994 -330 1357 -721 l81
-87 0 222 c0 164 4 231 14 255 16 41 76 93 113 101 68 14 1043 93 1401 114
188 10 234 -6 274 -96 19 -41 19 -52 8 -207 -7 -90 -11 -168 -8 -175 2 -6 62
56 135 137 267 302 414 458 445 475 40 21 98 23 141 4z m-7988 -3881 c25 -264
50 -502 56 -530 37 -194 206 -335 401 -335 46 0 136 15 266 45 243 54 557 122
847 181 123 25 242 55 272 69 76 35 157 115 195 194 27 56 33 80 36 158 l4 91
106 -85 c194 -158 401 -281 600 -358 l83 -32 -133 -17 c-583 -76 -1380 -194
-1948 -291 -598 -101 -706 -122 -764 -148 -77 -36 -156 -113 -197 -193 -48
-96 -49 -178 -6 -509 19 -143 34 -261 32 -263 -1 -1 -103 174 -226 390 -231
403 -279 473 -362 521 -164 96 -380 68 -510 -66 -54 -56 -330 -403 -606 -765
-103 -134 -167 -210 -174 -205 -7 4 -125 95 -262 202 -138 108 -293 229 -345
269 -51 39 -89 72 -83 72 25 0 114 107 154 183 141 274 621 1161 654 1210 11
15 32 3 211 -126 226 -162 399 -289 624 -457 204 -152 233 -165 375 -165 104
0 114 2 176 32 80 39 156 114 192 187 21 43 55 192 147 650 66 327 120 598
121 603 0 4 4 -1 9 -12 4 -11 29 -236 55 -500z m5255 -292 c25 -102 88 -189
185 -258 l28 -21 -329 -22 c-181 -13 -489 -36 -684 -53 -195 -16 -382 -31
-415 -34 -41 -3 -26 1 49 15 340 62 678 176 976 327 79 40 149 78 154 83 17
17 23 11 36 -37z m2137 -330 c-3 -3 -126 -11 -274 -18 -147 -8 -395 -22 -551
-31 l-282 -18 -33 31 c-17 17 -53 44 -79 60 l-47 30 147 12 c81 6 269 21 419
31 167 13 288 26 315 36 55 19 118 56 143 84 l20 22 113 -117 c63 -64 112
-119 109 -122z m909 11 c0 0 -38 2 -83 5 l-82 6 36 47 37 47 47 -52 c26 -29
46 -52 45 -53z m-4786 -91 l215 -7 -215 -22 -215 -23 -35 36 -35 35 35 -6 c19
-3 132 -9 250 -13z m5581 -23 c571 -28 1190 -71 1723 -119 208 -19 221 -22
245 -45 l25 -26 -38 11 c-57 16 -1698 6 -1752 -10 -39 -12 -42 -11 -95 24 -46
31 -234 127 -319 163 -33 14 -31 14 211 2z m-3057 -84 c40 -17 72 -56 88 -107
9 -32 15 -38 32 -34 62 14 1017 67 1546 86 655 23 909 -8 1198 -146 129 -62
226 -124 302 -192 l52 -47 20 26 c10 15 36 37 56 50 36 22 44 23 447 31 226 5
591 6 812 4 376 -4 404 -5 440 -24 44 -23 80 -71 89 -119 4 -22 -29 -214 -101
-594 -203 -1065 -333 -1765 -329 -1769 2 -2 122 1 266 8 497 22 725 30 747 24
11 -3 21 -1 21 5 0 6 69 443 154 971 126 782 158 968 176 995 24 40 91 76 141
76 38 0 652 -72 1029 -120 395 -51 795 -108 1235 -175 544 -84 585 -91 614
-113 68 -50 88 -118 61 -201 -18 -58 -387 -1017 -417 -1084 -22 -50 -73 -94
-120 -103 -32 -6 -196 17 -240 33 -7 3 -13 -2 -13 -11 0 -14 -248 -704 -285
-792 l-14 -33 32 -6 c18 -3 113 -16 211 -30 147 -20 186 -29 216 -49 43 -29
70 -79 70 -133 0 -21 -73 -321 -162 -668 -159 -613 -164 -630 -198 -666 -61
-64 -80 -65 -365 -14 -651 116 -1505 244 -2035 305 -102 11 -204 26 -227 31
-65 17 -123 89 -123 154 0 29 -3 30 -380 50 -673 36 -1247 55 -1682 55 -348 0
-393 6 -442 55 -49 48 -55 87 -39 250 7 77 40 433 73 790 33 358 63 670 66
696 l5 45 -138 -136 c-224 -219 -417 -355 -710 -497 -168 -82 -415 -167 -591
-204 -95 -20 -113 -27 -117 -44 -2 -11 -15 -169 -29 -351 -14 -181 -30 -343
-36 -360 -24 -61 -86 -104 -153 -104 -18 0 -163 20 -322 44 -160 25 -414 61
-565 81 -151 20 -287 43 -302 51 -48 25 -78 66 -90 125 l-11 56 -29 -33 c-16
-18 -43 -37 -61 -43 -18 -6 -140 -15 -272 -21 -728 -32 -1386 -77 -2009 -136
-214 -21 -278 -24 -307 -15 -43 13 -97 70 -106 112 -3 16 -6 29 -8 29 -1 0
-15 -6 -31 -14 -16 -8 -117 -24 -224 -35 -584 -64 -1368 -173 -1983 -275 -367
-61 -374 -61 -438 3 -40 39 -52 80 -65 209 -3 39 -10 72 -13 72 -7 0 -368
-376 -601 -625 -120 -129 -152 -149 -226 -143 -90 8 -101 22 -268 344 -131
255 -415 794 -421 802 -3 4 -65 -156 -201 -518 -63 -168 -122 -320 -131 -338
-35 -69 -147 -103 -217 -67 -15 8 -195 184 -399 391 -308 312 -373 373 -379
358 -4 -11 -37 -256 -72 -546 -40 -318 -71 -539 -80 -555 -29 -57 -87 -93
-146 -93 -17 0 -159 48 -317 106 -159 58 -398 144 -533 190 -507 175 -485 166
-516 227 -23 43 -21 87 21 442 117 1013 308 2402 430 3140 22 131 22 132 60
174 68 75 171 77 237 4 70 -79 115 -115 178 -145 36 -17 90 -49 120 -72 192
-145 718 -554 897 -698 67 -54 126 -98 131 -98 5 0 56 62 113 138 347 459 774
1002 813 1033 14 11 44 23 66 26 86 12 147 -20 193 -100 13 -23 102 -179 199
-347 206 -360 542 -959 724 -1292 71 -130 130 -233 131 -230 2 4 -51 422 -116
929 -127 979 -126 959 -80 1017 34 43 71 56 272 92 809 146 2463 394 2626 394
84 0 154 -59 167 -140 l6 -36 116 13 c525 57 1337 128 1917 168 738 51 815 53
869 31z"/>
<path d="M34109 19673 c-114 -126 -305 -340 -425 -477 -164 -187 -220 -245
-222 -230 -2 11 9 193 23 404 14 211 24 384 23 385 -15 10 -1462 -106 -1474
-118 -3 -2 0 -672 6 -1488 5 -816 10 -1639 10 -1828 l0 -344 53 6 c96 12 619
56 891 76 148 12 271 23 274 25 2 3 12 130 22 283 10 153 19 278 19 279 4 4
577 -583 780 -798 36 -38 67 -68 70 -68 4 0 33 35 66 78 72 93 447 565 571
716 l89 109 -82 76 c-44 42 -150 141 -234 220 -85 80 -183 172 -219 205 -83
78 -269 248 -433 395 -70 63 -127 118 -127 122 0 21 1383 1060 1394 1048 2 -2
-13 -224 -34 -494 -140 -1781 -180 -2300 -180 -2335 l0 -40 98 0 c305 0 1288
-60 2005 -121 202 -17 370 -30 372 -28 2 3 50 282 108 620 l104 617 -86 6
c-102 7 -664 32 -1020 45 -139 6 -255 12 -258 15 -3 3 3 57 12 121 l18 117
136 -7 c75 -3 249 -13 386 -21 138 -8 257 -14 266 -14 12 0 26 39 59 163 23
89 69 263 102 385 33 123 58 225 56 227 -3 3 -400 30 -688 46 -107 6 -196 11
-196 12 -2 3 27 212 29 213 4 4 701 -57 937 -81 135 -14 256 -25 270 -25 24 0
27 8 74 173 27 94 98 340 157 545 60 205 109 377 109 382 0 13 -49 18 -460 45
-874 58 -2297 121 -2315 103 -3 -3 -15 -129 -26 -279 -11 -151 -22 -284 -25
-297 -4 -18 -46 30 -242 276 -313 394 -626 781 -632 781 -3 1 -98 -101 -211
-226z"/>
<path d="M29940 19865 c-234 -34 -422 -90 -608 -182 -153 -75 -252 -149 -412
-312 -302 -304 -509 -653 -635 -1067 -170 -561 -130 -1057 122 -1511 118 -213
280 -395 499 -559 304 -229 590 -330 986 -350 555 -28 1275 197 1724 537 96
72 196 172 241 240 l26 39 -99 107 c-55 58 -264 273 -465 477 l-366 371 -69
-61 c-338 -295 -624 -433 -848 -410 -195 19 -370 210 -436 474 -20 81 -20 87
-4 165 47 236 153 449 283 570 191 179 482 151 781 -74 52 -39 119 -94 148
-121 45 -42 56 -48 66 -37 7 8 109 127 227 264 118 138 306 353 418 479 l204
230 -134 130 c-189 183 -349 300 -539 396 -205 103 -425 175 -631 205 -126 18
-357 18 -479 0z"/>
<path d="M25185 19617 c-53 -232 -275 -1291 -326 -1554 -6 -35 -14 -63 -18
-62 -3 0 -85 91 -181 202 -247 284 -742 837 -749 837 -10 -1 -354 -726 -556
-1172 -54 -120 -101 -218 -104 -218 -3 0 -29 40 -57 88 -251 429 -727 1218
-748 1240 -10 10 -53 -14 -222 -124 -417 -273 -1004 -674 -1004 -687 0 -4 103
-150 228 -325 579 -804 1313 -1879 1870 -2736 68 -104 127 -185 132 -180 4 5
84 153 178 329 243 459 707 1303 727 1324 8 8 696 -481 1113 -791 117 -87 216
-158 220 -158 5 0 40 163 80 363 83 417 184 901 271 1302 34 154 71 324 82
379 24 118 196 869 273 1191 30 126 54 230 53 231 -1 1 -78 39 -172 84 -93 45
-240 116 -325 157 -85 42 -186 90 -225 108 -38 18 -119 56 -180 85 -156 74
-275 130 -312 146 l-31 14 -17 -73z"/>
<path d="M27420 19560 c-267 -54 -579 -119 -695 -144 -115 -25 -213 -46 -217
-46 -16 0 -33 182 247 -2645 53 -528 98 -971 101 -983 3 -15 10 -22 18 -19 28
11 614 139 886 193 157 32 288 60 292 63 4 3 -6 443 -22 976 -37 1207 -57
1942 -66 2373 l-7 332 -26 -1 c-14 0 -244 -44 -511 -99z"/>
<path d="M38236 19079 c-3 -13 -53 -379 -111 -814 -58 -434 -132 -988 -165
-1230 -33 -242 -90 -656 -125 -920 -36 -264 -67 -494 -70 -511 l-5 -31 147
-42 c346 -98 718 -178 1005 -218 77 -10 193 -17 308 -17 l185 -1 135 39 c850
245 1517 811 1814 1539 209 510 216 1014 21 1400 -63 124 -116 199 -215 301
-251 261 -562 401 -1000 451 -125 14 -465 37 -830 55 -107 6 -396 13 -642 17
l-447 6 -5 -24z m1616 -1324 c107 -38 191 -152 224 -305 21 -96 22 -257 1
-335 -84 -323 -372 -593 -719 -675 -77 -18 -287 -45 -293 -38 -1 2 40 192 92
423 51 231 115 517 141 635 l48 215 76 33 c169 72 313 88 430 47z"/>
<path d="M39635 17603 c-18 -3 -138 -43 -141 -47 -7 -6 -216 -957 -212 -962
11 -10 192 57 263 98 106 61 161 106 226 186 72 89 124 195 146 297 14 64 15
90 6 163 -26 200 -84 274 -216 271 -28 -1 -61 -3 -72 -6z"/>
<path d="M31754 18917 c-155 -173 -515 -585 -656 -752 -132 -156 -168 -185
-233 -185 -53 0 -83 16 -159 84 -225 200 -373 276 -535 276 -116 0 -190 -54
-280 -204 -59 -99 -94 -186 -122 -302 -24 -102 -18 -144 37 -260 95 -202 212
-259 414 -203 145 40 315 145 540 335 127 106 166 123 236 104 38 -11 94 -64
465 -438 l422 -425 -6 579 c-4 318 -7 787 -7 1042 0 254 -3 462 -7 462 -5 0
-53 -51 -109 -113z m-125 -1132 l1 -220 -190 190 c-104 104 -190 193 -190 197
0 7 157 193 309 366 l56 64 6 -189 c4 -103 7 -287 8 -408z m-1371 291 c23 -8
65 -30 95 -49 63 -40 197 -154 197 -167 0 -11 -165 -134 -240 -179 -63 -39
-170 -81 -204 -81 -27 0 -46 19 -75 77 -27 55 -27 88 5 181 26 79 58 142 101
200 27 37 56 41 121 18z"/>
<path d="M37921 18313 c-88 -307 -102 -322 -293 -309 -54 4 -105 9 -113 13
-10 3 -15 -2 -15 -16 0 -12 -49 -205 -110 -428 -60 -223 -107 -409 -105 -413
3 -4 87 -10 187 -14 206 -8 251 -16 290 -54 15 -14 29 -24 32 -21 5 6 198
1460 194 1464 -2 2 -32 -98 -67 -222z"/>
<path d="M34585 18103 c-220 -165 -433 -324 -472 -355 l-73 -56 203 -185 c111
-101 299 -275 417 -385 118 -111 216 -198 217 -194 5 16 114 1455 111 1464 -2
6 -184 -125 -403 -289z m101 -448 c-9 -103 -17 -189 -19 -191 -5 -6 -227 201
-225 211 0 6 58 53 127 106 96 74 127 93 129 80 2 -10 -4 -102 -12 -206z"/>
<path d="M32305 15212 c-447 -22 -1279 -83 -1820 -132 -333 -31 -907 -89 -911
-93 -1 -1 29 -540 66 -1197 38 -657 83 -1451 101 -1765 17 -313 33 -571 34
-573 2 -2 97 6 211 17 557 55 1225 102 1784 126 206 9 399 18 428 21 l52 5 0
42 c0 23 9 302 21 620 12 318 19 581 15 584 -3 3 -97 -2 -208 -11 -343 -28
-1081 -95 -1115 -101 l-33 -6 0 125 0 125 43 5 c66 9 665 56 713 56 37 0 44 3
49 23 2 12 25 177 50 367 25 190 48 360 52 379 l6 34 -109 -7 c-195 -13 -657
-46 -721 -53 l-63 -6 0 110 0 110 123 6 c297 16 592 28 840 36 147 5 269 10
271 12 2 2 14 69 26 149 11 80 50 336 86 569 35 233 63 424 62 425 -2 0 -25 0
-53 -2z"/>
<path d="M29145 15139 c-681 -92 -1254 -178 -1805 -269 -342 -57 -741 -128
-745 -132 -1 -2 13 -120 31 -263 19 -143 95 -732 169 -1310 75 -577 139 -1076
144 -1107 4 -32 6 -58 5 -58 -2 0 -29 48 -60 108 -170 319 -510 949 -672 1242
-286 519 -763 1351 -772 1348 -17 -6 -568 -713 -850 -1091 -80 -108 -137 -176
-145 -173 -7 2 -134 101 -281 218 -489 388 -1167 908 -1185 908 -5 0 -9 -6 -9
-13 0 -7 -20 -141 -44 -297 -143 -914 -267 -1823 -375 -2755 -28 -237 -53
-444 -55 -462 -3 -23 0 -33 12 -38 9 -4 127 -44 262 -90 237 -81 549 -193 809
-289 68 -26 125 -45 126 -44 2 2 35 257 74 568 100 795 104 830 112 830 4 0
223 -218 485 -485 263 -266 481 -481 485 -477 4 4 39 95 78 202 106 287 365
950 371 950 9 0 464 -856 648 -1217 42 -84 79 -153 82 -153 3 0 61 60 129 133
204 217 803 838 806 835 2 -2 17 -118 35 -258 17 -140 33 -260 35 -266 2 -8
45 -4 142 13 646 110 1485 229 2131 300 90 9 168 20 174 24 8 5 5 181 -11 625
-12 340 -23 620 -26 622 -6 6 -295 -38 -883 -135 -254 -42 -464 -74 -466 -72
-2 2 -5 58 -7 124 l-4 120 200 32 c110 17 289 44 398 59 192 28 197 29 197 52
0 12 9 168 20 345 11 177 21 347 22 377 l3 55 -35 -3 c-51 -5 -800 -112 -825
-118 -22 -5 -23 -2 -30 101 -4 58 -5 108 -3 110 9 9 890 111 1124 131 45 3 86
9 92 13 6 4 24 171 42 401 17 217 37 469 45 560 8 91 15 171 15 178 0 16 -42
14 -215 -9z"/>
<path d="M34000 15139 c-430 -17 -1216 -60 -1351 -75 l-57 -6 -6 -41 c-3 -23
-6 -823 -8 -1777 l-3 -1735 205 -27 c113 -15 345 -48 515 -74 171 -25 328 -48
350 -51 l40 -5 31 401 c17 221 34 404 37 407 3 3 55 14 116 25 466 79 879 273
1237 582 218 188 393 415 525 682 35 71 59 109 59 95 -1 -14 -49 -540 -109
-1170 -59 -630 -106 -1148 -104 -1152 2 -5 133 -8 291 -8 473 0 1122 -23 1785
-61 197 -12 360 -19 362 -17 6 5 157 1259 153 1264 -8 7 -1073 -39 -1155 -50
-20 -3 -33 0 -33 6 0 16 321 1727 430 2292 22 115 37 212 34 215 -6 6 -1523 5
-1529 -1 -2 -2 -10 -84 -19 -183 -9 -99 -19 -200 -22 -225 l-7 -45 -22 65
c-123 360 -469 602 -952 665 -124 16 -444 18 -793 4z m292 -1104 c105 -37 163
-150 138 -270 -30 -147 -257 -340 -510 -434 -61 -23 -230 -64 -236 -58 -3 3
69 623 81 693 5 30 8 32 113 57 59 14 121 28 137 31 62 9 230 -2 277 -19z"/>
<path d="M33988 13876 c-32 -7 -60 -14 -62 -17 -9 -9 -49 -349 -42 -356 9 -9
106 39 186 92 85 56 185 161 194 202 9 39 -7 71 -40 83 -35 13 -167 11 -236
-4z"/>
<path d="M38586 14413 c-4 -16 -58 -350 -121 -743 -127 -793 -293 -1827 -381
-2368 -31 -194 -55 -354 -53 -356 2 -3 153 -23 334 -46 603 -75 1565 -223
2020 -309 70 -13 102 -16 107 -8 3 6 22 74 42 151 20 78 58 227 85 331 61 237
156 603 174 672 l14 51 -76 11 c-153 23 -901 120 -1091 142 -107 12 -196 24
-198 25 -5 3 49 228 57 235 7 8 15 7 470 -57 178 -25 326 -43 328 -40 14 13
272 741 266 746 -7 7 -425 71 -750 116 -94 13 -123 21 -123 32 0 8 9 54 21
103 18 76 24 89 41 89 39 0 690 -113 1041 -181 87 -17 161 -28 164 -25 4 3 55
133 115 288 59 156 152 395 205 531 56 144 92 251 87 256 -19 18 -1180 190
-1858 276 -345 43 -871 105 -900 105 -8 0 -17 -12 -20 -27z"/>
<path d="M32377 14204 c-29 -192 -38 -224 -79 -260 -38 -35 -64 -44 -125 -44
-32 0 -81 -3 -109 -6 l-51 -6 -38 -287 c-21 -157 -48 -355 -59 -440 l-22 -153
51 5 c27 4 124 12 215 18 162 12 166 12 208 -10 l42 -21 0 695 c0 382 -1 695
-3 695 -1 0 -15 -84 -30 -186z"/>
<path d="M29441 14050 c-1 -74 -15 -118 -48 -153 -39 -41 -69 -53 -143 -61
-123 -12 -151 -18 -147 -30 2 -6 -8 -204 -23 -441 -14 -236 -26 -431 -26 -432
1 -1 87 12 191 28 105 17 209 29 233 27 l43 -3 -5 45 c-3 25 -17 268 -32 540
-14 272 -30 504 -34 515 -6 14 -9 4 -9 -35z"/>
</g>
</svg>
